PathFileType	4	(X/Y/Z)	 s05c0103.trc
DataRate	CameraRate	NumFrames	NumMarkers	Units	OrigDataRate	OrigDataStartFrame	OrigNumFrames
200	200	4	49	mm	200	251	2000
Frame#	Time	racr			lacr			c7			jug			rlel			rdr			llel			ldr			s2			lic			ric			lasi			rasi			rpsi			lpsi			rgt			lgt			rth1			rth2			rth3			rth4			rlfc			rsh1			rsh2			rsh3			rsh4			rlmal			rmmal			rcal			rtoe			rmt5			lth1			lth2			lth4			lth3			llfc			lmfc			lsh1			lsh2			lsh3			lsh4			llmal			lmmal			lcal			ltoe			lmt5			SBIKE			LBIKE			RBIKE			
		X1	Y1	Z1	X2	Y2	Z2	X3	Y3	Z3	X4	Y4	Z4	X5	Y5	Z5	X6	Y6	Z6	X7	Y7	Z7	X8	Y8	Z8	X9	Y9	Z9	X10	Y10	Z10	X11	Y11	Z11	X12	Y12	Z12	X13	Y13	Z13	X14	Y14	Z14	X15	Y15	Z15	X16	Y16	Z16	X17	Y17	Z17	X18	Y18	Z18	X19	Y19	Z19	X20	Y20	Z20	X21	Y21	Z21	X22	Y22	Z22	X23	Y23	Z23	X24	Y24	Z24	X25	Y25	Z25	X26	Y26	Z26	X27	Y27	Z27	X28	Y28	Z28	X29	Y29	Z29	X30	Y30	Z30	X31	Y31	Z31	X32	Y32	Z32	X33	Y33	Z33	X34	Y34	Z34	X35	Y35	Z35	X36	Y36	Z36	X37	Y37	Z37	X38	Y38	Z38	X39	Y39	Z39	X40	Y40	Z40	X41	Y41	Z41	X42	Y42	Z42	X43	Y43	Z43	X44	Y44	Z44	X45	Y45	Z45	X46	Y46	Z46	X47	Y47	Z47	X48	Y48	Z48	X49	Y49	Z49	
251	1.2550	435.073263	1328.909599	-112.426758	451.513832	1345.164717	-404.951849	436.100100	1412.921198	-258.077744	405.639025	1257.683227	-263.741589	509.106031	1090.278428	-11.917055	700.281767	920.859640	-76.295542	495.442013	1092.594599	-523.119881	636.380750	844.240764	-470.086768	-104.933927	1167.855530	-260.896799	45.846916	1168.051999	-403.056792	49.963451	1185.985434	-124.603751	89.251845	1112.913558	-367.627486	83.594803	1120.955831	-148.889324	-68.345799	1212.150424	-219.925272	-64.032480	1213.877200	-307.289252	-7.538009	1062.379425	-86.465081	-31.534265	1072.327239	-431.623242	94.301934	1002.172032	-71.818538	181.776730	985.631668	-70.180787	247.686777	927.195774	-74.767011	197.172049	1017.976211	-80.736232	381.625391	850.902121	-101.217435	319.176166	757.388260	-80.121705	312.350606	669.164681	-91.832318	265.786580	597.561700	-98.007788	341.569368	662.674775	-115.810901	229.324905	468.702100	-110.847467	241.738606	502.887903	-187.564803	160.245557	431.300148	-157.963328	455.228336	428.922501	-145.126967	354.688955	398.017930	-82.675472	45.914871	952.961930	-457.693570	116.575852	904.174241	-461.936540	145.345317	924.853701	-449.462294	153.437208	821.578892	-467.755523	227.599654	691.320876	-445.213010	219.942689	681.547573	-335.220338	133.015310	604.422148	-463.619236	95.597236	526.208576	-449.648482	21.989549	476.887275	-445.500842	120.989084	508.537544	-426.774517	-48.975403	373.976083	-433.527918	-13.726222	399.307202	-358.578844	-122.030539	352.783246	-389.070584	155.783206	257.398557	-395.588313	45.047507	260.358278	-458.296749	-164.579999	903.004353	-266.181394	-43.655436	84.997171	-474.645030	-51.853854	80.162492	-77.148997	
252	1.2600	435.067108	1328.877512	-112.360948	451.491963	1345.105662	-404.884405	436.119328	1412.868504	-258.019895	405.650284	1257.624031	-263.656801	509.107993	1090.259002	-11.868838	700.289000	920.847791	-76.253955	495.421895	1092.572288	-523.112941	636.338450	844.388896	-469.985962	-104.937788	1167.855781	-260.876169	45.831097	1168.038821	-403.007921	49.924418	1185.979321	-124.591142	89.249251	1112.897668	-367.595046	83.588555	1120.935357	-148.874366	-68.364459	1212.140049	-219.924230	-64.025511	1213.883046	-307.295922	-7.544131	1062.381779	-86.456191	-31.546822	1072.325681	-431.611142	94.296497	1002.191538	-71.789801	181.774669	985.699381	-70.161885	247.698769	927.243864	-74.735638	197.151784	1018.006243	-80.703627	381.650535	850.978200	-101.183207	319.162001	757.468017	-80.111380	312.317479	669.243796	-91.818425	265.770109	597.660372	-97.999940	341.560271	662.728521	-115.793869	229.317089	468.786639	-110.848841	241.715824	502.977476	-187.564470	160.213640	431.383891	-157.972592	455.204971	428.998926	-145.105586	354.665897	398.106720	-82.682693	45.896797	952.958186	-457.689408	116.545307	904.162821	-461.918610	145.330440	924.836134	-449.453639	153.416765	821.556670	-467.740053	227.555732	691.300873	-445.189750	219.907427	681.518932	-335.207443	132.999507	604.375365	-463.603738	95.597322	526.171382	-449.627037	21.991471	476.820956	-445.493494	120.994287	508.504394	-426.772762	-48.942264	373.896297	-433.517484	-13.690481	399.210117	-358.575837	-122.002453	352.706733	-389.070725	155.818346	257.312624	-395.580015	45.077977	260.288159	-458.304637	-164.637730	902.996928	-266.140904	-43.647619	84.995386	-474.634376	-51.854707	80.183818	-77.121347	
253	1.2650	435.044701	1328.837766	-112.303538	451.524470	1345.066996	-404.837563	436.112335	1412.841598	-257.962932	405.645845	1257.578189	-263.603059	509.124910	1090.235407	-11.846254	700.293627	920.834585	-76.237288	495.409619	1092.503363	-523.113512	636.373189	844.337588	-469.971329	-104.950270	1167.853324	-260.878446	45.856705	1168.036680	-403.022258	49.921213	1185.955520	-124.550811	89.243903	1112.893076	-367.586657	83.571527	1120.927020	-148.870613	-68.385003	1212.152257	-219.931133	-64.031965	1213.873220	-307.288273	-7.583518	1062.393839	-86.447980	-31.566106	1072.338635	-431.622945	94.274856	1002.218844	-71.767067	181.755685	985.762099	-70.110758	247.695652	927.359900	-74.703751	197.119731	1018.092847	-80.661330	381.662896	851.074569	-101.133702	319.165752	757.558494	-80.083699	312.279680	669.337051	-91.811181	265.752102	597.731817	-97.992010	341.545523	662.788964	-115.751333	229.279474	468.887693	-110.833703	241.671637	503.067517	-187.550645	160.180299	431.498872	-157.992093	455.173504	429.069744	-145.106676	354.612083	398.209608	-82.683723	45.877545	952.950074	-457.672605	116.528736	904.148555	-461.900027	145.299877	924.822406	-449.440880	153.375908	821.536343	-467.723854	227.501355	691.286006	-445.168937	219.872819	681.493115	-335.177385	132.973973	604.336705	-463.591094	95.594357	526.114683	-449.624230	21.991460	476.760667	-445.472331	120.981037	508.441301	-426.741807	-48.927065	373.825136	-433.515079	-13.664904	399.145125	-358.569214	-121.964031	352.610843	-389.069221	155.846897	257.235848	-395.571530	45.121477	260.158588	-458.298610	-164.580466	903.037118	-266.072549	-43.651708	84.992357	-474.657527	-51.867211	80.173062	-77.138195	
254	1.2700	435.025079	1328.799852	-112.248784	451.518162	1345.051103	-404.794719	436.097545	1412.828890	-257.874269	405.645365	1257.519184	-263.588648	509.140068	1090.215806	-11.803498	700.294146	920.851816	-76.220881	495.402613	1092.482874	-523.105516	636.329786	844.386120	-469.960665	-104.973358	1167.865381	-260.880193	45.828777	1168.014003	-402.982500	49.905494	1185.952905	-124.564896	89.235526	1112.876993	-367.594217	83.535902	1120.910970	-148.854675	-68.411625	1212.158690	-219.939154	-64.040944	1213.883976	-307.294430	-7.613889	1062.399453	-86.412879	-31.574238	1072.321906	-431.604172	94.258792	1002.251992	-71.725867	181.742994	985.795406	-70.086132	247.680011	927.426331	-74.652572	197.102245	1018.127713	-80.627311	381.663628	851.144125	-101.097501	319.163297	757.626962	-80.070218	312.269521	669.425896	-91.767984	265.704966	597.839272	-97.968622	341.512827	662.873159	-115.732995	229.225325	468.985942	-110.842663	241.631897	503.177987	-187.560143	160.145003	431.584178	-158.003630	455.142728	429.184464	-145.103010	354.566014	398.332216	-82.692726	45.857743	952.942464	-457.654920	116.503617	904.130054	-461.883646	145.285811	924.779748	-449.422313	153.342740	821.509655	-467.697469	227.462044	691.240873	-445.146954	219.796913	681.424895	-335.154297	132.920733	604.295195	-463.587268	95.560629	526.067461	-449.627686	21.988598	476.683879	-445.469942	120.979393	508.399301	-426.743286	-48.883591	373.716785	-433.518215	-13.688545	399.063314	-358.562233	-121.936683	352.502615	-389.078973	155.884953	257.147198	-395.563502	45.166185	260.039084	-458.305811	-164.552161	903.033699	-266.091170	-43.659190	84.955344	-474.621056	-51.840298	80.147979	-77.155145	
